PathFileType	4	(X/Y/Z)	pose_F01_0-87.trc
DataRate	CameraRate	NumFrames	NumMarkers	Units	OrigDataRate	OrigDataStartFrame	OrigNumFrames
30	30	7	21	m	30	49	87
Frame#	Time	CHip			RHip			RKnee			RAnkle			RBigToe			RSmallToe			RHeel			LHip			LKnee			LAnkle			LBigToe			LSmallToe			LHeel			Neck			Nose			RShoulder			RElbow			RWrist			LShoulder			LElbow			LWrist			
		X1	Y1	Z1	X2	Y2	Z2	X3	Y3	Z3	X4	Y4	Z4	X5	Y5	Z5	X6	Y6	Z6	X7	Y7	Z7	X8	Y8	Z8	X9	Y9	Z9	X10	Y10	Z10	X11	Y11	Z11	X12	Y12	Z12	X13	Y13	Z13	X14	Y14	Z14	X15	Y15	Z15	X16	Y16	Z16	X17	Y17	Z17	X18	Y18	Z18	X19	Y19	Z19	X20	Y20	Z20	X21	Y21	Z21	
49	1.6333333333333333	-0.2318280010012954	1.9116749410787168	-0.5199224283850369	-0.24615617102555162	1.909675407083707	-0.46912044182440205	-0.2615692982317279	1.7523072389459389	-0.43951181309222126													-0.21476256836020274	1.9146121938358855	-0.5732500855819248	-0.20519155179148077	1.7615553571060383	-0.5969975871991822	-0.18796136007601297	1.619764838318069	-0.5527954192593572	-0.20216674357623035	1.5777837223525226	-0.5848255622056646	-0.18793389818069567	1.5843689678141244	-0.604724716079629	-0.18492836819639874	1.6091170246712834	-0.5327928766869487	-0.22764872982774542	2.068907859760972	-0.5078555074017389	-0.22948394783078288	2.1414094292831676	-0.5496727241209082	-0.24416603235228718	2.0718177149556483	-0.4442527147768559	-0.2762315956603559	2.1121077325263125	-0.5022072660449955	-0.30419211047675904	2.159750136567469	-0.5729418825879532	-0.2057241771636836	2.064351755168792	-0.5667492246854874	-0.19736273496159087	2.0098021303473455	-0.6588963781862839	-0.21553976855537305	2.0755035597120446	-0.6494297285876188
50	1.6666666666666667	-0.22758041946418828	1.8994769730675283	-0.522153994346061	-0.24386362722525556	1.8973163138287377	-0.4690911337760066	-0.25956625366501573	1.745675090926928	-0.44193012178814617													-0.20846629450747314	1.9020812299666534	-0.577813685548821	-0.19907797805904884	1.7506975231825286	-0.5935713469683344	-0.18465243212696614	1.623989280753612	-0.5213421758920394	-0.1903059977826717	1.5843056778053317	-0.5641960701966237	-0.1804000256707562	1.5908418670648985	-0.5795239821045728	-0.18931945958976196	1.614529815746605	-0.49731785581359605	-0.2216008935982018	2.056701583338539	-0.5100995971920732	-0.22254040624027913	2.1216123566205	-0.5472738099718254	-0.23919013368472883	2.05802145813818	-0.4402637001873638	-0.27567055995495826	2.094693794126948	-0.4962459488859161	-0.3034004926203285	2.1492268920365034	-0.5759738640198666	-0.20140993047876393	2.0555226029692184	-0.5683618024970043	-0.19262111737989915	2.0063588224344584	-0.6510839144368203	-0.21115050145809042	2.0708964770213285	-0.6335623830492466
51	1.7	-0.22256890102228064	1.8924430729571997	-0.5224340112214306	-0.23669869062453902	1.8889325265237198	-0.4622662365766342	-0.25756320909830355	1.7390429429079175	-0.44434843048407113													-0.2043777499011597	1.8971426921980585	-0.5815962533897396	-0.19851584237722214	1.7462289203625878	-0.5851849447105769	-0.1894487076529544	1.6207560126475629	-0.5116888931928287	-0.20079150610609686	1.589245803933447	-0.5584440635099011	-0.18911765950994758	1.595547654679544	-0.5671868560791486	-0.19395458355795162	1.6148975248239295	-0.49057744253717117	-0.21690552475792005	2.0411532374358874	-0.5090431883715313	-0.22138746726383726	2.1019562701671695	-0.5466661665200528	-0.23274971540770273	2.039348937125817	-0.4318928800082443	-0.27838849472135474	2.069442100864765	-0.4899037029893717	-0.2939796368505307	2.1284737394902957	-0.5499748217200174	-0.1935380037170013	2.0431628126621737	-0.5761089102197676	-0.187947619093072	1.9914982521503846	-0.6418193841759239	-0.20834901288530086	2.052295680743321	-0.6287903268352268
52	1.7333333333333334	-0.214405425999217	1.8891976101618622	-0.5279435185129369	-0.22664253834355652	1.8841053662634755	-0.46103926079494495	-0.25556016453159136	1.7324107948889067	-0.44676673917999604													-0.2000946751751406	1.8912008042185204	-0.5827526172819513	-0.19795370669539541	1.7417603175426473	-0.5767985424528195	-0.19424498317894265	1.6175227445415137	-0.5020356104936181	-0.20009073233727542	1.5891061942987161	-0.5634967051679783	-0.1880827177545803	1.593160099684401	-0.5723979729791392	-0.19858970752614127	1.6152652339012539	-0.4838370292607463	-0.21358369259931081	2.0353026936646685	-0.5146327756327594	-0.21599054880108384	2.0949336215804717	-0.5376659549540908	-0.2283397031013227	2.032452217545082	-0.43350766977559363	-0.2666545651798151	2.040052818891006	-0.4713296033023304	-0.2768055088977971	2.1074056569444544	-0.5295613154788458	-0.19197632269738013	2.0396709484396425	-0.5888868590045898	-0.1814619523170612	1.978038842385767	-0.6449572675860823	-0.1924160948361868	2.026227579386845	-0.6349823597337001
53	1.7666666666666666	-0.20808151878796355	1.8873438587438955	-0.5228373142717693	-0.22051740253333643	1.8854370347740907	-0.465168607116865	-0.2510963985724766	1.7357036784783377	-0.4384712546931831													-0.1945137359789087	1.8891199753754688	-0.5807440809524893	-0.19438714634972235	1.741495698327783	-0.5675575536894558	-0.19453174493942257	1.6137665326329171	-0.49212831529080414	-0.19696347871948977	1.5866268135592079	-0.5618405405662148	-0.1885678075793456	1.5938259655893738	-0.5714890362636993	-0.20071654355064072	1.6133204581809013	-0.481075282579917	-0.2060335430514982	2.0365752888935313	-0.5080681342607407	-0.2148698628130481	2.1011194937068396	-0.5359031507917631	-0.22370213741302178	2.032681306405865	-0.43582740360786465	-0.2549206356382755	2.010663536917247	-0.4527555036152891	-0.25963138094506355	2.0863375743986126	-0.5091478092376741	-0.1863095831824699	2.0407021301684836	-0.5888519544751173	-0.18212827026510722	1.9781874447296837	-0.6369847176995008	-0.19356946809096354	2.0290842100619684	-0.620339964158996
54	1.8	-0.20675958552946974	1.8942851984312137	-0.5120264651809805	-0.22095304326136753	1.8909540506437577	-0.4603483950604757	-0.24443812918813096	1.740616527503234	-0.42814780726800944													-0.19040669691854498	1.896217365114483	-0.5687910509496297	-0.19194311837835237	1.7427856288647303	-0.5443248792432726	-0.19404129959525163	1.6136224998025197	-0.49248097647038563	-0.1914335698410826	1.5851533623235676	-0.5627445643775547	-0.18525032243828818	1.5955601618185578	-0.5707131252153549	-0.1987555935902555	1.6075555602556655	-0.47787120247898446	-0.2019111336349701	2.044121552827355	-0.5053562501576767	-0.2119844898886446	2.1031986242607688	-0.5379213036549536	-0.21760059888291988	2.0397957281051635	-0.4267568681317816	-0.25168005971020024	1.9982497307196825	-0.43990735482071364	-0.2549202968232542	2.068230504662457	-0.5070988960032154	-0.18303948271026504	2.046887721872936	-0.5885827015483573	-0.18466936781356622	1.9794914669459103	-0.6264587133808653	-0.19581076575359366	2.0363690449296903	-0.610717507201026
55	1.8333333333333333	-0.20512348065870573	1.895450213608072	-0.5083184808224623	-0.21827920728877465	1.8948550764957766	-0.45386833216009276	-0.24401156084525022	1.7424869196159745	-0.41493644709431926													-0.1879738415715808	1.8966963360059934	-0.5621374962721472	-0.19148236122758003	1.749350852651666	-0.5366718179779593	-0.19297726879250385	1.6132322721531516	-0.4892121794615284	-0.19316011517568837	1.586409787955094	-0.5608531729963526	-0.18499206468130702	1.5993806911466748	-0.5667029041650133	-0.19650784384796494	1.6069735217513559	-0.46216862644735907	-0.20067257522656026	2.047385409385809	-0.5019428259843092	-0.21162279629256658	2.111717897323563	-0.5282995590312407	-0.21915219713752743	2.044326133421321	-0.41639778205810296	-0.2472126483662262	1.9907639587476578	-0.4406502110110798	-0.2465361462234365	2.045241084389408	-0.4940753815817975	-0.17883259860363718	2.0497048772383133	-0.5837615230952538	-0.18261939237155536	1.986993492659583	-0.620936451653556	-0.20160512927160126	2.046730659301297	-0.5953342264348331
